<?xml version="1.0" standalone="no"?>
<!DOCTYPE svg PUBLIC "-//W3C//DTD SVG 20010904//EN"
 "http://www.w3.org/TR/2001/REC-SVG-20010904/DTD/svg10.dtd">
<svg version="1.0" xmlns="http://www.w3.org/2000/svg"
 width="3508.000000pt" height="3508.000000pt" viewBox="0 0 3508.000000 3508.000000"
 preserveAspectRatio="xMidYMid meet">
<metadata>
Created by potrace 1.14, written by Peter Selinger 2001-2017
</metadata>
<g transform="translate(0.000000,3508.000000) scale(0.100000,-0.100000)"
fill="#000000" stroke="none">
<path d="M17078 28845 c-2 -2 -59 -6 -128 -10 -69 -4 -147 -8 -175 -10 -162
-12 -224 -17 -255 -20 -19 -2 -69 -7 -110 -10 -41 -4 -86 -9 -100 -11 -14 -3
-50 -7 -80 -9 -30 -3 -66 -7 -80 -10 -14 -2 -52 -7 -85 -11 -33 -3 -69 -8 -80
-10 -11 -3 -38 -7 -60 -10 -35 -4 -98 -13 -200 -30 -35 -5 -130 -22 -161 -28
-12 -2 -37 -7 -55 -10 -95 -16 -316 -61 -421 -85 -46 -11 -95 -22 -108 -24
-14 -3 -99 -24 -190 -47 -91 -23 -172 -43 -180 -45 -85 -18 -693 -205 -765
-235 -11 -4 -85 -31 -165 -60 -238 -85 -581 -224 -825 -335 -80 -36 -486 -233
-505 -245 -8 -5 -46 -25 -85 -45 -174 -91 -626 -351 -745 -429 -19 -13 -114
-75 -210 -139 -372 -245 -793 -559 -1075 -802 -33 -29 -73 -63 -89 -76 -16
-13 -34 -29 -40 -34 -6 -6 -58 -53 -116 -105 -58 -52 -125 -113 -150 -135 -82
-74 -525 -519 -610 -614 -47 -51 -96 -105 -110 -120 -156 -169 -421 -493 -609
-742 -55 -74 -109 -145 -119 -159 -47 -63 -216 -307 -294 -425 -89 -135 -318
-503 -318 -511 0 -2 -11 -21 -24 -42 -41 -65 -196 -350 -294 -541 -326 -637
-615 -1377 -806 -2061 -35 -125 -104 -389 -111 -423 -2 -10 -6 -26 -9 -35 -3
-9 -7 -28 -10 -42 -2 -14 -12 -59 -21 -100 -39 -174 -46 -207 -51 -239 -3 -18
-8 -43 -11 -55 -2 -11 -11 -57 -19 -101 -8 -44 -17 -91 -19 -105 -3 -14 -8
-41 -11 -60 -3 -19 -7 -42 -9 -50 -2 -8 -7 -37 -10 -65 -4 -27 -8 -57 -10 -65
-2 -8 -7 -37 -10 -65 -4 -27 -8 -57 -10 -65 -2 -8 -7 -42 -11 -75 -3 -33 -8
-69 -10 -80 -2 -11 -6 -42 -9 -70 -3 -27 -7 -66 -10 -85 -5 -38 -12 -104 -20
-190 -3 -30 -7 -75 -10 -100 -2 -25 -7 -83 -10 -130 -3 -47 -8 -110 -10 -140
-26 -331 -26 -1164 0 -1470 3 -30 7 -91 10 -135 3 -44 8 -100 10 -125 3 -25 7
-70 10 -100 3 -30 8 -77 11 -105 7 -74 55 -442 59 -468 3 -11 7 -39 10 -62 11
-72 15 -97 51 -295 19 -107 39 -211 44 -230 5 -19 11 -51 14 -70 4 -19 20 -93
36 -165 17 -71 33 -140 36 -153 2 -13 21 -85 40 -160 20 -75 37 -144 39 -152
2 -8 14 -49 25 -90 12 -41 23 -82 25 -90 6 -25 101 -328 140 -445 62 -189 98
-287 129 -358 9 -21 16 -42 16 -48 0 -6 6 -25 14 -42 7 -18 19 -48 27 -67 24
-67 187 -455 222 -530 19 -41 45 -97 57 -125 46 -103 222 -454 285 -570 35
-66 68 -127 72 -135 11 -25 145 -257 213 -370 125 -210 373 -588 469 -716 9
-12 23 -32 31 -44 8 -12 78 -106 155 -209 149 -198 274 -356 390 -491 22 -26
65 -75 95 -111 30 -35 98 -111 150 -169 52 -58 111 -123 130 -144 63 -72 514
-519 605 -602 50 -44 117 -105 150 -135 33 -30 87 -76 120 -104 32 -27 66 -57
75 -65 32 -30 77 -67 200 -165 69 -55 127 -103 130 -106 8 -9 314 -238 415
-310 166 -119 437 -300 578 -386 43 -27 90 -56 105 -65 15 -9 37 -23 49 -30
12 -7 64 -38 115 -68 51 -30 97 -57 103 -59 5 -2 21 -12 35 -21 118 -80 743
-394 1050 -527 58 -25 129 -56 158 -69 29 -13 58 -24 65 -24 7 0 17 -4 23 -9
5 -4 70 -32 144 -60 74 -29 146 -57 160 -62 80 -34 420 -151 665 -229 125 -40
523 -150 595 -165 8 -2 72 -17 141 -34 111 -26 513 -110 609 -126 19 -3 60
-10 90 -15 106 -18 255 -41 295 -45 22 -3 51 -7 65 -10 26 -5 83 -12 160 -21
25 -2 61 -6 80 -9 19 -3 62 -7 95 -10 33 -3 76 -8 95 -10 84 -10 185 -19 345
-30 387 -27 1202 -27 1505 0 25 2 86 7 135 10 50 3 104 8 120 9 17 2 59 6 95
10 177 18 250 26 370 42 30 4 62 8 70 9 8 1 33 5 55 8 22 4 58 9 80 12 23 3
50 7 61 9 12 2 45 7 75 11 30 4 57 9 60 10 3 2 28 7 55 10 27 4 65 10 84 15
19 5 52 11 72 14 99 15 456 92 633 137 44 11 87 22 95 24 8 2 51 13 95 25 44
12 87 23 95 25 187 43 965 301 1120 372 19 9 41 16 48 16 6 0 12 4 12 9 0 4 7
8 15 8 12 0 136 50 260 104 17 8 100 44 185 82 163 71 772 375 799 397 9 8 24
17 33 20 10 4 61 31 114 62 52 30 100 55 105 55 5 0 9 5 9 10 0 6 4 10 9 10
29 0 625 383 871 560 127 92 325 240 410 307 30 25 62 50 70 56 179 141 433
360 635 547 93 85 524 517 600 601 33 36 83 90 110 120 80 88 176 198 236 270
20 24 73 88 118 142 360 434 748 998 1056 1535 9 16 61 108 108 192 64 114
317 612 317 624 0 2 20 46 44 97 184 393 368 875 523 1369 30 96 56 183 59
193 9 36 14 54 29 107 16 54 101 385 110 425 8 39 13 61 28 120 9 33 27 119
42 190 14 72 28 141 31 155 5 26 20 109 30 169 3 18 8 43 10 55 3 11 7 37 10
56 5 36 10 67 18 110 3 14 8 45 11 70 2 25 6 54 9 65 2 11 7 45 11 75 4 30 9
62 10 71 2 8 6 42 9 74 4 32 9 72 11 89 4 28 10 87 20 191 10 105 15 156 20
230 4 44 8 96 10 115 28 262 28 1216 0 1555 -2 28 -7 84 -10 125 -3 41 -8 100
-11 130 -3 30 -6 73 -8 95 -9 94 -17 172 -21 195 -3 14 -7 46 -10 73 -12 114
-16 143 -20 157 -2 8 -7 38 -10 65 -3 28 -7 61 -10 75 -3 13 -7 42 -10 65 -3
22 -8 52 -11 67 -3 15 -7 39 -9 55 -3 27 -48 270 -60 323 -3 14 -12 61 -21
105 -30 150 -34 167 -64 294 -84 349 -185 700 -292 1016 -52 156 -147 418
-177 490 -5 11 -26 63 -46 115 -57 145 -48 124 -241 559 -18 40 -37 78 -43 84
-6 6 -11 16 -11 22 0 16 -177 364 -293 575 -53 97 -196 341 -266 455 -37 61
-74 121 -82 134 -8 14 -17 30 -22 35 -8 12 -222 332 -247 371 -94 145 -395
540 -599 785 -272 327 -684 765 -947 1007 -26 23 -178 162 -218 198 -234 211
-642 539 -906 728 -14 9 -54 38 -90 64 -74 54 -452 306 -520 347 -48 29 -49
29 -149 92 -308 191 -882 491 -1246 651 -44 20 -98 43 -120 53 -51 23 -271
114 -352 146 -154 60 -195 75 -303 114 -135 49 -487 166 -545 181 -22 5 -49
14 -60 19 -21 9 -304 88 -344 96 -14 3 -57 14 -97 25 -72 20 -93 25 -144 35
-14 3 -59 14 -100 24 -118 30 -458 98 -655 131 -227 38 -214 36 -315 49 -47 6
-96 13 -110 15 -57 9 -319 38 -450 50 -30 2 -80 7 -110 9 -30 3 -95 8 -145 11
-49 4 -121 9 -160 11 -79 6 -1062 14 -1067 9z"/>
</g>
</svg>
